<?xml version="1.0" encoding="UTF-8" standalone="no"?>
<!DOCTYPE svg PUBLIC "-//W3C//DTD SVG 1.1//EN"
 "http://www.w3.org/Graphics/SVG/1.1/DTD/svg11.dtd">
<!-- Generated by graphviz version 2.40.1 (20161225.0304)
 -->
<!-- Title: dependencies Pages: 1 -->
<svg width="2015pt" height="284pt"
 viewBox="0.00 0.00 2015.00 284.00" xmlns="http://www.w3.org/2000/svg" xmlns:xlink="http://www.w3.org/1999/xlink">
<g id="graph0" class="graph" transform="scale(1 1) rotate(0) translate(4 280)">
<title>dependencies</title>
<polygon fill="#ffffff" stroke="transparent" points="-4,4 -4,-280 2011,-280 2011,4 -4,4"/>
<text text-anchor="start" x="982.5091" y="-42.4" font-family="sans-serif" font-weight="bold" font-size="14.00" fill="#000000">Legend</text>
<polygon fill="#ffffb3" stroke="transparent" points="769.5,-10 769.5,-30 789.5,-30 789.5,-10 769.5,-10"/>
<text text-anchor="start" x="793.129" y="-15.4" font-family="sans-serif" font-size="14.00" fill="#000000"> &#160;Declarations</text>
<polygon fill="#8dd3c7" stroke="transparent" points="882.5,-10 882.5,-30 902.5,-30 902.5,-10 882.5,-10"/>
<text text-anchor="start" x="906.2251" y="-15.4" font-family="sans-serif" font-size="14.00" fill="#000000"> &#160;Module</text>
<polygon fill="#80b1d3" stroke="transparent" points="968.5,-10 968.5,-30 988.5,-30 988.5,-10 968.5,-10"/>
<text text-anchor="start" x="992.2812" y="-15.4" font-family="sans-serif" font-size="14.00" fill="#000000"> &#160;Bootstrap</text>
<polygon fill="#fdb462" stroke="transparent" points="1065.5,-10 1065.5,-30 1085.5,-30 1085.5,-10 1065.5,-10"/>
<text text-anchor="start" x="1089.1732" y="-15.4" font-family="sans-serif" font-size="14.00" fill="#000000"> &#160;Providers</text>
<polygon fill="#fb8072" stroke="transparent" points="1161.5,-10 1161.5,-30 1181.5,-30 1181.5,-10 1161.5,-10"/>
<text text-anchor="start" x="1185.2258" y="-15.4" font-family="sans-serif" font-size="14.00" fill="#000000"> &#160;Exports</text>
<g id="clust1" class="cluster">
<title>cluster_AppModule</title>
<polygon fill="none" stroke="#000000" stroke-dasharray="1,5" points="8,-70 8,-268 1999,-268 1999,-70 8,-70"/>
</g>
<g id="clust2" class="cluster">
<title>cluster_AppModule_declarations</title>
<polygon fill="none" stroke="#000000" points="366,-78 366,-130 1991,-130 1991,-78 366,-78"/>
</g>
<g id="clust13" class="cluster">
<title>cluster_AppModule_imports</title>
<polygon fill="none" stroke="#000000" points="210,-78 210,-130 358,-130 358,-78 210,-78"/>
</g>
<g id="clust15" class="cluster">
<title>cluster_AppModule_bootstrap</title>
<polygon fill="none" stroke="#000000" points="945,-208 945,-260 1069,-260 1069,-208 945,-208"/>
</g>
<g id="clust16" class="cluster">
<title>cluster_AppModule_providers</title>
<polygon fill="none" stroke="#000000" points="16,-78 16,-130 202,-130 202,-78 16,-78"/>
</g>
<!-- AppComponent -->
<g id="node1" class="node">
<title>AppComponent</title>
<polygon fill="#ffffb3" stroke="#000000" points="1982.9399,-122 1877.0601,-122 1877.0601,-86 1982.9399,-86 1982.9399,-122"/>
<text text-anchor="middle" x="1930" y="-99.8" font-family="Times,serif" font-size="14.00" fill="#000000">AppComponent</text>
</g>
<!-- AppModule -->
<g id="node11" class="node">
<title>AppModule</title>
<polygon fill="#8dd3c7" stroke="#000000" points="1048.6571,-187 1045.6571,-191 1024.6571,-191 1021.6571,-187 965.3429,-187 965.3429,-151 1048.6571,-151 1048.6571,-187"/>
<text text-anchor="middle" x="1007" y="-164.8" font-family="Times,serif" font-size="14.00" fill="#000000">AppModule</text>
</g>
<!-- AppComponent&#45;&gt;AppModule -->
<g id="edge1" class="edge">
<title>AppComponent&#45;&gt;AppModule</title>
<path fill="none" stroke="#000000" d="M1930,-122.2479C1930,-145.0179 1930,-181 1930,-181 1930,-181 1058.7547,-181 1058.7547,-181"/>
<polygon fill="#000000" stroke="#000000" points="1058.7547,-177.5001 1048.7547,-181 1058.7546,-184.5001 1058.7547,-177.5001"/>
</g>
<!-- CreateCharacterComponent -->
<g id="node2" class="node">
<title>CreateCharacterComponent</title>
<polygon fill="#ffffb3" stroke="#000000" points="1859.271,-122 1686.729,-122 1686.729,-86 1859.271,-86 1859.271,-122"/>
<text text-anchor="middle" x="1773" y="-99.8" font-family="Times,serif" font-size="14.00" fill="#000000">CreateCharacterComponent</text>
</g>
<!-- CreateCharacterComponent&#45;&gt;AppModule -->
<g id="edge2" class="edge">
<title>CreateCharacterComponent&#45;&gt;AppModule</title>
<path fill="none" stroke="#000000" d="M1773,-122.2843C1773,-143.3211 1773,-175 1773,-175 1773,-175 1058.7275,-175 1058.7275,-175"/>
<polygon fill="#000000" stroke="#000000" points="1058.7275,-171.5001 1048.7275,-175 1058.7274,-178.5001 1058.7275,-171.5001"/>
</g>
<!-- DashboardComponent -->
<g id="node3" class="node">
<title>DashboardComponent</title>
<polygon fill="#ffffb3" stroke="#000000" points="1668.9734,-122 1527.0266,-122 1527.0266,-86 1668.9734,-86 1668.9734,-122"/>
<text text-anchor="middle" x="1598" y="-99.8" font-family="Times,serif" font-size="14.00" fill="#000000">DashboardComponent</text>
</g>
<!-- DashboardComponent&#45;&gt;AppModule -->
<g id="edge3" class="edge">
<title>DashboardComponent&#45;&gt;AppModule</title>
<path fill="none" stroke="#000000" d="M1598,-122.1061C1598,-141.3391 1598,-169 1598,-169 1598,-169 1059.0295,-169 1059.0295,-169"/>
<polygon fill="#000000" stroke="#000000" points="1059.0295,-165.5001 1049.0295,-169 1059.0294,-172.5001 1059.0295,-165.5001"/>
</g>
<!-- DashboardComponentDialog -->
<g id="node4" class="node">
<title>DashboardComponentDialog</title>
<polygon fill="#ffffb3" stroke="#000000" points="1509.0758,-122 1328.9242,-122 1328.9242,-86 1509.0758,-86 1509.0758,-122"/>
<text text-anchor="middle" x="1419" y="-99.8" font-family="Times,serif" font-size="14.00" fill="#000000">DashboardComponentDialog</text>
</g>
<!-- DashboardComponentDialog&#45;&gt;AppModule -->
<g id="edge4" class="edge">
<title>DashboardComponentDialog&#45;&gt;AppModule</title>
<path fill="none" stroke="#000000" d="M1419,-122.0225C1419,-139.3734 1419,-163 1419,-163 1419,-163 1058.7721,-163 1058.7721,-163"/>
<polygon fill="#000000" stroke="#000000" points="1058.7721,-159.5001 1048.7721,-163 1058.772,-166.5001 1058.7721,-159.5001"/>
</g>
<!-- LoginComponent -->
<g id="node5" class="node">
<title>LoginComponent</title>
<polygon fill="#ffffb3" stroke="#000000" points="1311.2758,-122 1196.7242,-122 1196.7242,-86 1311.2758,-86 1311.2758,-122"/>
<text text-anchor="middle" x="1254" y="-99.8" font-family="Times,serif" font-size="14.00" fill="#000000">LoginComponent</text>
</g>
<!-- LoginComponent&#45;&gt;AppModule -->
<g id="edge5" class="edge">
<title>LoginComponent&#45;&gt;AppModule</title>
<path fill="none" stroke="#000000" d="M1254,-122.2396C1254,-137.5706 1254,-157 1254,-157 1254,-157 1058.9002,-157 1058.9002,-157"/>
<polygon fill="#000000" stroke="#000000" points="1058.9002,-153.5001 1048.9002,-157 1058.9001,-160.5001 1058.9002,-153.5001"/>
</g>
<!-- MyCampaignsComponent -->
<g id="node6" class="node">
<title>MyCampaignsComponent</title>
<polygon fill="#ffffb3" stroke="#000000" points="1178.7688,-122 1015.2312,-122 1015.2312,-86 1178.7688,-86 1178.7688,-122"/>
<text text-anchor="middle" x="1097" y="-99.8" font-family="Times,serif" font-size="14.00" fill="#000000">MyCampaignsComponent</text>
</g>
<!-- MyCampaignsComponent&#45;&gt;AppModule -->
<g id="edge6" class="edge">
<title>MyCampaignsComponent&#45;&gt;AppModule</title>
<path fill="none" stroke="#000000" d="M1031.972,-122.1061C1031.972,-122.1061 1031.972,-140.991 1031.972,-140.991"/>
<polygon fill="#000000" stroke="#000000" points="1028.472,-140.9909 1031.972,-150.991 1035.472,-140.991 1028.472,-140.9909"/>
</g>
<!-- MyCharactersComponent -->
<g id="node7" class="node">
<title>MyCharactersComponent</title>
<polygon fill="#ffffb3" stroke="#000000" points="997.1288,-122 836.8712,-122 836.8712,-86 997.1288,-86 997.1288,-122"/>
<text text-anchor="middle" x="917" y="-99.8" font-family="Times,serif" font-size="14.00" fill="#000000">MyCharactersComponent</text>
</g>
<!-- MyCharactersComponent&#45;&gt;AppModule -->
<g id="edge7" class="edge">
<title>MyCharactersComponent&#45;&gt;AppModule</title>
<path fill="none" stroke="#000000" d="M981.243,-122.1061C981.243,-122.1061 981.243,-140.991 981.243,-140.991"/>
<polygon fill="#000000" stroke="#000000" points="977.7431,-140.9909 981.243,-150.991 984.7431,-140.991 977.7431,-140.9909"/>
</g>
<!-- NavMenuComponent -->
<g id="node8" class="node">
<title>NavMenuComponent</title>
<polygon fill="#ffffb3" stroke="#000000" points="818.8132,-122 681.1868,-122 681.1868,-86 818.8132,-86 818.8132,-122"/>
<text text-anchor="middle" x="750" y="-99.8" font-family="Times,serif" font-size="14.00" fill="#000000">NavMenuComponent</text>
</g>
<!-- NavMenuComponent&#45;&gt;AppModule -->
<g id="edge8" class="edge">
<title>NavMenuComponent&#45;&gt;AppModule</title>
<path fill="none" stroke="#000000" d="M750,-122.2396C750,-137.5706 750,-157 750,-157 750,-157 955.1365,-157 955.1365,-157"/>
<polygon fill="#000000" stroke="#000000" points="955.1366,-160.5001 965.1365,-157 955.1365,-153.5001 955.1366,-160.5001"/>
</g>
<!-- NewCampaignComponent -->
<g id="node9" class="node">
<title>NewCampaignComponent</title>
<polygon fill="#ffffb3" stroke="#000000" points="663.8075,-122 498.1925,-122 498.1925,-86 663.8075,-86 663.8075,-122"/>
<text text-anchor="middle" x="581" y="-99.8" font-family="Times,serif" font-size="14.00" fill="#000000">NewCampaignComponent</text>
</g>
<!-- NewCampaignComponent&#45;&gt;AppModule -->
<g id="edge9" class="edge">
<title>NewCampaignComponent&#45;&gt;AppModule</title>
<path fill="none" stroke="#000000" d="M581,-122.0225C581,-139.3734 581,-163 581,-163 581,-163 954.9876,-163 954.9876,-163"/>
<polygon fill="#000000" stroke="#000000" points="954.9877,-166.5001 964.9876,-163 954.9876,-159.5001 954.9877,-166.5001"/>
</g>
<!-- PlayComponent -->
<g id="node10" class="node">
<title>PlayComponent</title>
<polygon fill="#ffffb3" stroke="#000000" points="480.2204,-122 373.7796,-122 373.7796,-86 480.2204,-86 480.2204,-122"/>
<text text-anchor="middle" x="427" y="-99.8" font-family="Times,serif" font-size="14.00" fill="#000000">PlayComponent</text>
</g>
<!-- PlayComponent&#45;&gt;AppModule -->
<g id="edge10" class="edge">
<title>PlayComponent&#45;&gt;AppModule</title>
<path fill="none" stroke="#000000" d="M427,-122.1061C427,-141.3391 427,-169 427,-169 427,-169 955.2878,-169 955.2878,-169"/>
<polygon fill="#000000" stroke="#000000" points="955.2879,-172.5001 965.2878,-169 955.2878,-165.5001 955.2879,-172.5001"/>
</g>
<!-- AppComponent  -->
<g id="node13" class="node">
<title>AppComponent </title>
<polygon fill="#80b1d3" stroke="#000000" points="1061.439,-252 952.561,-252 952.561,-216 1061.439,-216 1061.439,-252"/>
<text text-anchor="middle" x="1007" y="-229.8" font-family="Times,serif" font-size="14.00" fill="#000000">AppComponent </text>
</g>
<!-- AppModule&#45;&gt;AppComponent  -->
<g id="edge12" class="edge">
<title>AppModule&#45;&gt;AppComponent </title>
<path fill="none" stroke="#000000" stroke-dasharray="1,5" d="M1007,-187.1061C1007,-187.1061 1007,-205.991 1007,-205.991"/>
<polygon fill="#000000" stroke="#000000" points="1003.5001,-205.9909 1007,-215.991 1010.5001,-205.991 1003.5001,-205.9909"/>
</g>
<!-- AppMaterialModule -->
<g id="node12" class="node">
<title>AppMaterialModule</title>
<polygon fill="#8dd3c7" stroke="#000000" points="349.5772,-122 346.5772,-126 325.5772,-126 322.5772,-122 218.4228,-122 218.4228,-86 349.5772,-86 349.5772,-122"/>
<text text-anchor="middle" x="284" y="-99.8" font-family="Times,serif" font-size="14.00" fill="#000000">AppMaterialModule</text>
</g>
<!-- AppMaterialModule&#45;&gt;AppModule -->
<g id="edge11" class="edge">
<title>AppMaterialModule&#45;&gt;AppModule</title>
<path fill="none" stroke="#000000" d="M284,-122.2843C284,-143.3211 284,-175 284,-175 284,-175 955.2679,-175 955.2679,-175"/>
<polygon fill="#000000" stroke="#000000" points="955.2679,-178.5001 965.2679,-175 955.2678,-171.5001 955.2679,-178.5001"/>
</g>
<!-- WebSocketService -->
<g id="node14" class="node">
<title>WebSocketService</title>
<ellipse fill="#fdb462" stroke="#000000" cx="109" cy="-104" rx="84.5092" ry="18"/>
<text text-anchor="middle" x="109" y="-99.8" font-family="Times,serif" font-size="14.00" fill="#000000">WebSocketService</text>
</g>
<!-- WebSocketService&#45;&gt;AppModule -->
<g id="edge13" class="edge">
<title>WebSocketService&#45;&gt;AppModule</title>
<path fill="none" stroke="#000000" d="M109,-122.2479C109,-145.0179 109,-181 109,-181 109,-181 955.1908,-181 955.1908,-181"/>
<polygon fill="#000000" stroke="#000000" points="955.1908,-184.5001 965.1908,-181 955.1908,-177.5001 955.1908,-184.5001"/>
</g>
</g>
</svg>
